<?xml version="1.0" encoding="UTF-8" standalone="no"?>
<svg
   xmlns:dc="http://purl.org/dc/elements/1.1/"
   xmlns:cc="http://creativecommons.org/ns#"
   xmlns:rdf="http://www.w3.org/1999/02/22-rdf-syntax-ns#"
   xmlns:svg="http://www.w3.org/2000/svg"
   xmlns="http://www.w3.org/2000/svg"
   xmlns:sodipodi="http://sodipodi.sourceforge.net/DTD/sodipodi-0.dtd"
   xmlns:inkscape="http://www.inkscape.org/namespaces/inkscape"
   version="1.1"
   id="Capa_1"
   x="0px"
   y="0px"
   viewBox="0 0 384 384"
   style="enable-background:new 0 0 384 384;"
   xml:space="preserve"
   sodipodi:docname="mute.svg"
   inkscape:version="1.0.1 (3bc2e813f5, 2020-09-07)"><metadata
   id="metadata51"><rdf:RDF><cc:Work
       rdf:about=""><dc:format>image/svg+xml</dc:format><dc:type
         rdf:resource="http://purl.org/dc/dcmitype/StillImage" /></cc:Work></rdf:RDF></metadata><defs
   id="defs49" /><sodipodi:namedview
   pagecolor="#ffffff"
   bordercolor="#666666"
   borderopacity="1"
   objecttolerance="10"
   gridtolerance="10"
   guidetolerance="10"
   inkscape:pageopacity="0"
   inkscape:pageshadow="2"
   inkscape:window-width="1920"
   inkscape:window-height="1055"
   id="namedview47"
   showgrid="false"
   inkscape:zoom="2.2916667"
   inkscape:cx="192.21818"
   inkscape:cy="270.49782"
   inkscape:window-x="0"
   inkscape:window-y="25"
   inkscape:window-maximized="1"
   inkscape:current-layer="Capa_1" />
<g
   id="g14"
   style="fill:#ffffff">
	<g
   id="g12"
   style="fill:#ffffff">
		<g
   id="g10"
   style="fill:#ffffff">
			<path
   d="M288,192c0-37.653-21.76-70.187-53.333-85.867v47.147l52.373,52.373C287.68,201.173,288,196.587,288,192z"
   id="path2"
   style="fill:#ffffff" />
			<path
   d="M341.333,192c0,20.053-4.373,38.933-11.52,56.32l32.32,32.32C376,254.08,384,224,384,192     c0-91.307-63.893-167.68-149.333-187.093V48.96C296.32,67.307,341.333,124.373,341.333,192z"
   id="path4"
   style="fill:#ffffff" />
			<polygon
   points="192,21.333 147.413,65.92 192,110.507    "
   id="polygon6"
   style="fill:#ffffff" />
			<path
   d="M27.2,0L0,27.2L100.8,128H0v128h85.333L192,362.667V219.2l90.773,90.773c-14.293,10.987-30.4,19.84-48.107,25.173V379.2     c29.333-6.72,56.107-20.16,78.613-38.613L356.8,384l27.2-27.2l-192-192L27.2,0z"
   id="path8"
   style="fill:#ffffff" />
		</g>
	</g>
</g>
<g
   id="g16">
</g>
<g
   id="g18">
</g>
<g
   id="g20">
</g>
<g
   id="g22">
</g>
<g
   id="g24">
</g>
<g
   id="g26">
</g>
<g
   id="g28">
</g>
<g
   id="g30">
</g>
<g
   id="g32">
</g>
<g
   id="g34">
</g>
<g
   id="g36">
</g>
<g
   id="g38">
</g>
<g
   id="g40">
</g>
<g
   id="g42">
</g>
<g
   id="g44">
</g>
</svg>
